# xmcd
#
# Track frame offsets: 
#        150
#        22694
#        40581
#        55846
#        86111
#        105526
#        132605
#        146285
#        165698
#        188749
#        214016
#        245037
#        270763
#
# Disc length: 3918 seconds
#
# Revision: 0
# Processed by: cddbd v1.5.2PL0 Copyright (c) Steve Scherf et al.
# Submitted via: ExactAudioCopy v0.95b3
#
DISCID=a80f4c0d
DTITLE=Robin Trower  - Richard's, Atlanta - FM  11-02-74
DYEAR=1900
DGENRE=
TTITLE0=01 The Fool In Me
TTITLE1=02 Twice Removed From Yesterday
TTITLE2=03 Lady Love
TTITLE3=04 Daydream
TTITLE4=05 Anoher Day, Another Night
TTITLE5=06 I Can't Wait Much Longer
TTITLE6=07 Man Of The World
TTITLE7=08 Sinner's Song
TTITLE8=09 Little Bit Of Sympathy
TTITLE9=10 Rock Me Baby
TTITLE10=11 Little Bit Of Sympathy
TTITLE11=12 Lady Love
TTITLE12=13 The Vision
EXTD=
EXTT0=
EXTT1=
EXTT2=
EXTT3=
EXTT4=
EXTT5=
EXTT6=
EXTT7=
EXTT8=
EXTT9=
EXTT10=
EXTT11=
EXTT12=
PLAYORDER=
